<svg width="1160" height="256" viewBox="0 0 1160 256" fill="none" xmlns="http://www.w3.org/2000/svg">
<path fill-rule="evenodd" clip-rule="evenodd" d="M171.176 32.5068V37.9525L165.183 42.9325H127.844H133.07L127.844 38.2245V32.5068H171.176ZM138.559 0L149.497 10.8925L127.895 32.4035V32.5068L127.844 32.455V15.6658L133.154 10.8823L127.844 6.099V0H138.559ZM171.202 0.00525V0H160.435L149.497 10.8925L171.176 32.481V0.00525H171.202Z" fill="#EA7987"/>
<path fill-rule="evenodd" clip-rule="evenodd" d="M84.5179 32.5068H127.85V38.2245L122.623 42.9325H127.85H90.5242L84.5179 37.9418V32.5068ZM127.85 6.099L122.539 10.8823L127.85 15.6658V32.455L127.798 32.5068V32.4035L106.197 10.8925L117.135 0H127.85V6.099ZM84.4922 0.00525V0H95.2589L106.197 10.8925L84.5179 32.481V0.00525H84.4922Z" fill="#AF2A3F"/>
<path fill-rule="evenodd" clip-rule="evenodd" d="M127.847 42.9324V51.2139L103.374 65.287L85.1543 65.275L65.1363 80.842H83.0728L113.714 106.911V134.771L127.847 147.069V158.273H127.79V158.269L103.976 138.596C97.3955 146.061 86.1173 153.857 86.1173 162.039C86.1173 166.101 88.023 169.805 91.1503 172.597L102.437 183.963L127.79 159.7L127.847 159.7V178.459L105.042 201.264L127.847 224.07V255.855L127.699 256L112.226 241.852H84.3768V241.831L43.8503 201.52H18V141.244L45.0528 105.345V70.416L21.034 45.8034L39.5273 19.3984L63.1705 19.5219L90.5213 42.9324H127.847ZM81.2515 149.015L68.5813 136.505L46.1305 165.216L68.5303 187.689L68.546 167.708C68.6983 164.576 71.1125 160.132 73.4303 157.361C73.482 157.299 73.5355 157.239 73.5908 157.18C74.379 156.34 81.2515 149.015 81.2515 149.015ZM101.697 117.477L83.175 100.415L64.9185 100.429L64.9283 109.107L87.522 131.813L101.697 117.477ZM60.7523 56.5684L45.0673 42.7152V70.4215L60.7523 56.5684Z" fill="#EA7987"/>
<path fill-rule="evenodd" clip-rule="evenodd" d="M165.183 42.9324L192.52 19.5219L216.164 19.3984L234.657 45.8034L210.638 70.416V105.345L237.691 141.244V201.52H211.841L171.314 241.831V241.852H143.465L127.992 256L127.844 255.855V224.07L127.863 224.09L150.689 201.264L127.863 178.439L127.844 178.459V159.7L127.901 159.7V159.7L153.254 183.963L164.541 172.597C167.668 169.805 169.574 166.101 169.574 162.039C169.574 153.857 158.295 146.061 151.714 138.596L127.901 158.269V158.273H127.844V147.069L141.977 134.771V106.911L172.618 80.842H190.555L170.537 65.275L152.317 65.287L127.844 51.2139V42.9324H165.183ZM174.439 149.015L187.11 136.505L209.56 165.216L187.161 187.689L187.145 167.708C186.993 164.576 184.578 160.132 182.261 157.361C182.209 157.299 182.155 157.239 182.1 157.18C181.312 156.34 174.439 149.015 174.439 149.015ZM153.994 117.477L172.516 100.415L190.772 100.429L190.763 109.107L168.169 131.813L153.994 117.477ZM194.939 56.5684L210.624 42.7152V70.4215L194.939 56.5684Z" fill="#AF2A3F"/>
<path d="M305.393 201.525H329.914V133.937C330.734 132.648 331.643 131.476 332.639 130.421C333.635 129.367 334.748 128.458 335.979 127.697C337.502 126.642 339.23 125.851 341.164 125.324C343.156 124.796 345.324 124.533 347.668 124.533C350.48 124.533 353 124.826 355.227 125.412C357.453 125.939 359.357 126.906 360.939 128.312C362.521 129.718 363.723 131.652 364.543 134.113C365.422 136.515 365.861 139.591 365.861 143.341V201.525H390.295V142.99C390.295 136.076 389.475 130.216 387.834 125.412C386.252 120.548 384.025 116.564 381.154 113.458C378.225 110.412 374.768 108.185 370.783 106.779C366.799 105.373 362.404 104.669 357.6 104.669C353.85 104.669 350.305 105.197 346.965 106.251C343.625 107.306 340.549 108.83 337.736 110.822C336.096 111.994 334.543 113.312 333.078 114.777C331.613 116.242 330.266 117.853 329.035 119.611L327.541 106.427H305.393V201.525Z" fill="#AF2A3F"/>
<path d="M420.002 106.427V126.378H447.072V181.662H420.002V201.525H497.521V181.662H471.77V106.427H420.002ZM445.314 82.0815C445.314 83.9565 445.637 85.7144 446.281 87.355C446.984 88.937 447.951 90.2847 449.182 91.3979C450.412 92.5698 451.877 93.478 453.576 94.1226C455.334 94.7671 457.268 95.0894 459.377 95.0894C463.713 95.0894 467.141 93.8882 469.66 91.4858C472.238 89.0249 473.527 85.8901 473.527 82.0815C473.527 78.2729 472.238 75.1675 469.66 72.7651C467.141 70.3042 463.713 69.0737 459.377 69.0737C457.268 69.0737 455.334 69.396 453.576 70.0405C451.877 70.6851 450.412 71.564 449.182 72.6772C447.951 73.8491 446.984 75.2554 446.281 76.896C445.637 78.478 445.314 80.2065 445.314 82.0815Z" fill="#AF2A3F"/>
<path d="M536.809 106.427H515.803V201.525H538.039V130.333C538.332 129.572 538.654 128.869 539.006 128.224C539.357 127.58 539.768 127.023 540.236 126.554C540.881 125.91 541.613 125.412 542.434 125.06C543.254 124.708 544.191 124.533 545.246 124.533C546.184 124.533 547.062 124.679 547.883 124.972C548.703 125.207 549.436 125.646 550.08 126.291C550.666 126.935 551.135 127.843 551.486 129.015C551.838 130.187 552.014 131.681 552.014 133.498V201.525H573.547V131.388C573.547 130.685 573.547 130.128 573.547 129.718C573.547 129.308 573.547 129.044 573.547 128.927C573.84 128.283 574.191 127.726 574.602 127.257C575.012 126.73 575.48 126.261 576.008 125.851C576.652 125.441 577.326 125.119 578.029 124.884C578.791 124.65 579.641 124.533 580.578 124.533C581.457 124.533 582.307 124.679 583.127 124.972C584.006 125.207 584.768 125.646 585.412 126.291C586.057 126.994 586.555 127.931 586.906 129.103C587.316 130.275 587.521 131.769 587.521 133.585V201.525H609.758V133.673C609.758 128.4 609.23 123.947 608.176 120.314C607.18 116.623 605.773 113.605 603.957 111.261C602.082 108.976 599.885 107.306 597.365 106.251C594.904 105.197 592.238 104.669 589.367 104.669C587.082 104.669 584.973 104.962 583.039 105.548C581.105 106.134 579.377 106.955 577.854 108.009C576.623 108.83 575.48 109.826 574.426 110.998C573.43 112.111 572.521 113.371 571.701 114.777C571.174 113.312 570.529 112.023 569.768 110.91C569.064 109.738 568.215 108.742 567.219 107.921C565.93 106.808 564.406 105.988 562.648 105.46C560.891 104.933 558.898 104.669 556.672 104.669C552.102 104.669 548.205 105.871 544.982 108.273C541.818 110.617 539.328 113.839 537.512 117.941L536.809 106.427Z" fill="#AF2A3F"/>
<path d="M634.631 238.087H645.09V190.011C646.496 191.886 648.107 193.585 649.924 195.109C651.799 196.632 653.791 197.921 655.9 198.976C658.537 200.382 661.35 201.437 664.338 202.14C667.385 202.902 670.549 203.283 673.83 203.283C680.217 203.283 685.754 201.935 690.441 199.24C695.129 196.544 698.996 192.97 702.043 188.517C705.031 184.064 707.287 178.908 708.811 173.048C710.393 167.189 711.184 161.154 711.184 154.943V153.097C711.125 146.417 710.275 140.031 708.635 133.937C707.053 127.843 704.592 122.541 701.252 118.029C698.088 113.927 694.221 110.675 689.65 108.273C685.139 105.871 679.777 104.669 673.566 104.669C670.344 104.669 667.238 105.05 664.25 105.812C661.262 106.574 658.479 107.687 655.9 109.152C653.732 110.382 651.682 111.876 649.748 113.634C647.873 115.392 646.232 117.355 644.826 119.523L644.387 106.427H634.631V238.087ZM700.637 153.097V154.943C700.578 159.806 699.992 164.64 698.879 169.445C697.824 174.25 696.096 178.527 693.693 182.277C691.35 185.792 688.332 188.664 684.641 190.89C681.008 193.117 676.584 194.23 671.369 194.23C668.439 194.23 665.598 193.849 662.844 193.087C660.09 192.326 657.57 191.212 655.285 189.748C653.059 188.4 651.066 186.759 649.309 184.826C647.609 182.833 646.203 180.607 645.09 178.146V131.74C646.203 129.044 647.639 126.613 649.396 124.445C651.154 122.218 653.176 120.314 655.461 118.732C657.629 117.208 660.031 116.037 662.668 115.216C665.363 114.337 668.205 113.898 671.193 113.898C676.232 113.898 680.539 114.923 684.113 116.974C687.746 119.025 690.764 121.691 693.166 124.972C695.744 128.839 697.619 133.234 698.791 138.156C700.021 143.078 700.637 148.058 700.637 153.097Z" fill="#AF2A3F"/>
<path d="M744.846 66.5249V75.9292H778.684V192.121H744.846V201.525H821.398V192.121H789.143V66.5249H744.846Z" fill="#AF2A3F"/>
<path d="M915.881 201.525H927.131V200.382C926.311 197.511 925.607 194.464 925.021 191.242C924.494 187.96 924.201 184.738 924.143 181.574V135.607C924.084 130.451 923.117 125.939 921.242 122.072C919.367 118.205 916.789 114.982 913.508 112.404C910.227 109.826 906.389 107.892 901.994 106.603C897.6 105.314 892.883 104.669 887.844 104.669C882.805 104.669 878.059 105.373 873.605 106.779C869.211 108.185 865.344 110.119 862.004 112.58C858.664 115.099 855.998 118.058 854.006 121.457C852.014 124.855 850.93 128.576 850.754 132.619L861.301 132.707C861.418 129.718 862.209 127.052 863.674 124.708C865.139 122.306 867.072 120.285 869.475 118.644C871.818 117.003 874.543 115.744 877.648 114.865C880.754 113.986 884.006 113.546 887.404 113.546C891.096 113.546 894.523 114.044 897.688 115.041C900.91 115.978 903.693 117.355 906.037 119.171C908.381 120.988 910.227 123.273 911.574 126.027C912.922 128.722 913.625 131.857 913.684 135.431V146.154H893.029C887.111 146.154 881.457 146.71 876.066 147.824C870.676 148.878 865.93 150.607 861.828 153.009C857.785 155.412 854.533 158.546 852.072 162.414C849.67 166.222 848.469 170.851 848.469 176.3C848.469 180.343 849.289 184.035 850.93 187.375C852.57 190.714 854.797 193.556 857.609 195.9C860.422 198.185 863.762 200.001 867.629 201.349C871.496 202.638 875.627 203.283 880.021 203.283C883.537 203.283 886.906 202.902 890.129 202.14C893.41 201.437 896.486 200.412 899.357 199.064C902.287 197.658 904.953 195.988 907.355 194.054C909.816 192.062 911.955 189.865 913.771 187.462C913.889 189.923 914.094 192.355 914.387 194.757C914.738 197.16 915.236 199.416 915.881 201.525ZM881.252 193.878C878.146 193.878 875.246 193.439 872.551 192.56C869.855 191.681 867.512 190.451 865.52 188.869C863.469 187.287 861.857 185.353 860.686 183.068C859.572 180.724 859.016 178.146 859.016 175.333C858.957 171.818 859.719 168.83 861.301 166.369C862.883 163.849 865.021 161.74 867.717 160.041C870.939 157.99 874.895 156.554 879.582 155.734C884.328 154.855 889.309 154.386 894.523 154.328H913.684V175.158C912.336 177.97 910.578 180.548 908.41 182.892C906.242 185.177 903.752 187.14 900.939 188.781C898.127 190.421 895.051 191.681 891.711 192.56C888.371 193.439 884.885 193.878 881.252 193.878Z" fill="#AF2A3F"/>
<path d="M958.596 201.525H969.143V136.574C970.139 133.468 971.545 130.568 973.361 127.873C975.236 125.177 977.375 122.833 979.777 120.841C982.414 118.732 985.344 117.062 988.566 115.832C991.789 114.542 995.217 113.898 998.85 113.898C1003.01 113.839 1006.58 114.396 1009.57 115.568C1012.62 116.74 1015.17 118.468 1017.22 120.753C1019.21 123.039 1020.68 125.851 1021.61 129.191C1022.61 132.531 1023.14 136.369 1023.2 140.705V201.525H1033.74L1033.65 140.529C1033.65 134.845 1032.95 129.777 1031.54 125.324C1030.14 120.812 1028.09 117.033 1025.39 113.986C1022.64 110.939 1019.24 108.625 1015.2 107.042C1011.21 105.46 1006.61 104.669 1001.4 104.669C997.473 104.669 993.781 105.255 990.324 106.427C986.867 107.541 983.674 109.123 980.744 111.173C978.283 112.873 976.057 114.894 974.064 117.238C972.072 119.582 970.344 122.13 968.879 124.884L968.352 106.427H958.596V201.525Z" fill="#AF2A3F"/>
<path d="M1101.86 82.0815H1091.13V106.427H1064.68V115.128H1091.13V174.718C1091.19 179.933 1091.96 184.357 1093.42 187.99C1094.94 191.564 1097.02 194.494 1099.66 196.779C1102.3 199.064 1105.4 200.705 1108.98 201.701C1112.61 202.755 1116.54 203.283 1120.75 203.283C1122.8 203.283 1124.86 203.195 1126.91 203.019C1129.02 202.902 1131.04 202.697 1132.97 202.404C1134.49 202.169 1135.93 201.876 1137.28 201.525C1138.68 201.115 1139.94 200.675 1141.06 200.207L1139.39 192.208C1138.51 192.326 1137.48 192.501 1136.31 192.736C1135.14 192.912 1133.91 193.087 1132.62 193.263C1130.98 193.498 1129.31 193.673 1127.61 193.791C1125.91 193.908 1124.21 193.966 1122.51 193.966C1119.64 193.966 1116.95 193.644 1114.43 193C1111.96 192.355 1109.8 191.3 1107.92 189.835C1106.05 188.312 1104.55 186.349 1103.44 183.947C1102.38 181.486 1101.83 178.41 1101.77 174.718V115.128H1137.01V106.427H1101.77L1101.86 82.0815Z" fill="#AF2A3F"/>
</svg>
