<svg xmlns="http://www.w3.org/2000/svg" version="1.1" xmlns:xlink="http://www.w3.org/1999/xlink" xmlns:svgjs="http://svgjs.com/svgjs" width="1024" height="1024"><svg width="1024" height="1024" viewBox="0 0 1024 1024" fill="none" xmlns="http://www.w3.org/2000/svg">
<path fill-rule="evenodd" clip-rule="evenodd" d="M685.328 130.027V151.81L661.355 171.73H512H532.907L512 152.898V130.027H685.328ZM554.859 0L598.612 43.57L512.207 129.614V130.027L512 129.82V62.663L533.242 43.529L512 24.396V0H554.859ZM685.431 0.021V0H642.364L598.612 43.57L685.328 129.924V0.021H685.431Z" fill="#EA7987"></path>
<path fill-rule="evenodd" clip-rule="evenodd" d="M338.697 130.027H512.025V152.898L491.118 171.73H512.025H362.722L338.697 151.767V130.027ZM512.025 24.396L490.783 43.529L512.025 62.663V129.82L511.818 130.027V129.614L425.413 43.57L469.166 0H512.025V24.396ZM338.594 0.021V0H381.661L425.413 43.57L338.697 129.924V0.021H338.594Z" fill="#AF2A3F"></path>
<path fill-rule="evenodd" clip-rule="evenodd" d="M512.013 171.73V204.856L414.122 261.148L341.242 261.1L261.17 323.368H332.916L455.482 427.643V539.083L512.013 588.278V633.091H511.785V633.077L416.53 554.386C390.207 584.244 345.094 615.429 345.094 648.155C345.094 664.404 352.717 679.222 365.226 690.39L410.373 735.852L511.785 638.801L512.013 638.8V713.835L420.791 805.057L512.013 896.279V1023.42L511.421 1024L449.528 967.409H338.132V967.324L176.026 806.079H72.625V564.976L180.836 421.38V281.664L84.761 183.214L158.734 77.5938L253.307 78.0877L362.71 171.73H512.013ZM325.631 596.062L274.95 546.021L185.147 660.865L274.746 750.756L274.809 670.831C275.418 658.305 285.075 640.527 294.346 629.445C294.553 629.198 294.767 628.956 294.988 628.721C298.141 625.359 325.631 596.062 325.631 596.062ZM407.414 469.907L333.325 401.659L260.299 401.718L260.338 436.429L350.713 527.252L407.414 469.907ZM243.634 226.274L180.894 170.861V281.686L243.634 226.274Z" fill="#EA7987"></path>
<path fill-rule="evenodd" clip-rule="evenodd" d="M661.355 171.73L770.706 78.0877L865.279 77.5938L939.252 183.214L843.177 281.664V421.38L951.388 564.976V806.079H847.987L685.881 967.324V967.409H574.485L512.592 1024L512 1023.42V896.279L512.079 896.359L603.381 805.057L512.079 713.756L512 713.835V638.8L512.228 638.799V638.801L613.64 735.852L658.787 690.39C671.296 679.222 678.919 664.404 678.919 648.155C678.919 615.429 633.806 584.244 607.483 554.386L512.228 633.077V633.091H512V588.278L568.531 539.083V427.643L691.097 323.368H762.843L682.771 261.1L609.891 261.148L512 204.856V171.73H661.355ZM698.382 596.062L749.063 546.021L838.866 660.865L749.267 750.756L749.204 670.831C748.595 658.305 738.938 640.527 729.667 629.445C729.46 629.198 729.246 628.956 729.025 628.721C725.872 625.359 698.382 596.062 698.382 596.062ZM616.599 469.907L690.688 401.659L763.714 401.718L763.675 436.429L673.3 527.252L616.599 469.907ZM780.379 226.274L843.119 170.861V281.686L780.379 226.274Z" fill="#AF2A3F"></path>
</svg><style>@media (prefers-color-scheme: light) { :root { filter: none; } }
@media (prefers-color-scheme: dark) { :root { filter: contrast(0.3846153846153846) brightness(4.5); } }
</style></svg>