<svg width="682" height="794" viewBox="0 0 682 794" fill="none" xmlns="http://www.w3.org/2000/svg">
<path fill-rule="evenodd" clip-rule="evenodd" d="M475.084 100.822V117.712L456.496 133.158H340.687H356.898L340.687 118.556V100.822H475.084ZM373.92 0L407.845 33.7838L340.848 100.502V100.822L340.687 100.661V48.5883L357.158 33.752L340.687 18.9164V0H373.92ZM475.164 0.0162832V0H441.77L407.845 33.7838L475.084 100.742V0.0162832H475.164Z" fill="white" fill-opacity="0.6"/>
<path fill-rule="evenodd" clip-rule="evenodd" d="M206.31 100.822H340.707V118.556L324.495 133.158H340.707H224.938L206.31 117.679V100.822ZM340.707 18.9164L324.236 33.752L340.707 48.5883V100.661L340.546 100.822V100.502L273.548 33.7838L307.474 0H340.707V18.9164ZM206.23 0.0162832V0H239.623L273.548 33.7838L206.31 100.742V0.0162832H206.23Z" fill="white" fill-opacity="0.9"/>
<path fill-rule="evenodd" clip-rule="evenodd" d="M340.697 133.158V158.843L264.794 202.492L208.283 202.454L146.196 250.736H201.827L296.864 331.59V418L340.697 456.145V490.893H340.521V490.882L266.661 429.866C246.25 453.017 211.27 477.198 211.27 502.573C211.27 515.173 217.181 526.662 226.88 535.322L261.887 570.573L340.521 495.32L340.697 495.319V553.501L269.965 624.234L340.697 694.966V793.55L340.238 794L292.247 750.12H205.872V750.054L80.1762 625.026H0V438.077L83.9058 326.734V218.399L9.41014 142.062L66.7681 60.1655L140.099 60.5485L224.929 133.158H340.697ZM196.179 462.181L156.881 423.379L87.2485 512.428L156.723 582.129L156.772 520.156C157.244 510.443 164.732 496.659 171.92 488.066C172.081 487.874 172.247 487.687 172.418 487.504C174.863 484.897 196.179 462.181 196.179 462.181ZM259.592 364.361L202.144 311.442L145.521 311.488L145.551 338.403L215.627 408.826L259.592 364.361ZM132.599 175.451L83.9508 132.484V218.417L132.599 175.451Z" fill="white" fill-opacity="0.6"/>
<path fill-rule="evenodd" clip-rule="evenodd" d="M456.496 133.158L541.286 60.5485L614.617 60.1655L671.975 142.062L597.479 218.399V326.734L681.385 438.077V625.026H601.208L475.513 750.054V750.12H389.138L341.146 794L340.687 793.55V694.966L340.748 695.028L411.543 624.234L340.748 553.44L340.687 553.501V495.319L340.864 495.319V495.32L419.498 570.573L454.505 535.322C464.204 526.662 470.115 515.173 470.115 502.573C470.115 477.198 435.134 453.017 414.724 429.866L340.864 490.882V490.893H340.687V456.145L384.521 418V331.59L479.557 250.736H535.189L473.102 202.454L416.591 202.492L340.687 158.843V133.158H456.496ZM485.206 462.181L524.504 423.379L594.136 512.428L524.662 582.129L524.613 520.156C524.141 510.443 516.653 496.659 509.464 488.066C509.304 487.874 509.138 487.687 508.966 487.504C506.522 484.897 485.206 462.181 485.206 462.181ZM421.792 364.361L479.24 311.442L535.864 311.488L535.834 338.403L465.758 408.826L421.792 364.361ZM548.786 175.451L597.434 132.484V218.417L548.786 175.451Z" fill="white" fill-opacity="0.9"/>
</svg>
